<?xml version="1.0" standalone="no"?>
<!DOCTYPE svg PUBLIC "-//W3C//DTD SVG 20010904//EN"
 "http://www.w3.org/TR/2001/REC-SVG-20010904/DTD/svg10.dtd">
<svg version="1.0" xmlns="http://www.w3.org/2000/svg"
 width="512.000000pt" height="512.000000pt" viewBox="0 0 512.000000 512.000000"
 preserveAspectRatio="xMidYMid meet">
<metadata>
Created by potrace 1.14, written by Peter Selinger 2001-2017
</metadata>
<g transform="translate(0.000000,512.000000) scale(0.100000,-0.100000)"
fill="#000000" stroke="none">
<path d="M1051 4019 c0 -605 -2 -1103 -4 -1106 -3 -2 -23 7 -45 22 -103 68
-322 102 -457 70 -33 -7 -60 -14 -60 -14 0 0 -9 -3 -20 -7 -233 -80 -398 -267
-449 -510 -19 -87 -12 -234 14 -319 42 -137 111 -237 236 -344 33 -29 153 -93
204 -109 110 -36 289 -37 400 -3 238 72 427 281 470 521 8 41 11 420 12 1190
1 1190 0 1138 38 1100 3 -3 32 -27 65 -55 218 -181 293 -269 334 -395 27 -83
34 -153 34 -360 l0 -176 148 0 c130 -1 149 1 150 15 11 253 -4 468 -41 593
-57 197 -147 313 -420 543 -242 203 -298 278 -305 410 l-2 30 -151 3 -151 3 0
-1102z"/>
<path d="M5079 4076 c-2 -2 -20 -7 -40 -10 -20 -3 -173 -33 -340 -67 -361 -72
-297 -59 -571 -113 -123 -24 -236 -46 -253 -49 -16 -3 -178 -35 -360 -72 -181
-37 -339 -68 -350 -70 -245 -47 -611 -119 -613 -121 -2 -1 -4 -527 -4 -1168 0
-641 -2 -1166 -4 -1166 -3 0 -21 10 -42 23 -110 68 -308 104 -437 78 -79 -16
-88 -19 -120 -31 -190 -73 -331 -212 -404 -398 -36 -90 -50 -207 -38 -311 31
-269 217 -492 479 -573 106 -32 285 -32 382 0 232 78 379 227 459 467 20 58
20 90 23 1110 2 578 3 1068 4 1090 l0 40 153 30 c181 35 166 32 197 38 14 3
84 17 155 31 72 14 209 41 305 60 96 19 187 37 203 40 15 3 35 7 45 10 9 3 35
7 57 11 22 3 47 7 55 10 8 2 26 6 40 9 21 4 89 17 208 41 13 2 31 6 40 9 9 3
33 7 52 10 33 5 155 29 210 41 14 3 41 8 60 11 19 3 52 10 72 15 20 5 54 12
76 15 l40 5 -1 -641 c0 -352 -3 -639 -6 -637 -145 78 -248 106 -381 105 -177
-2 -329 -67 -460 -198 -69 -69 -94 -101 -127 -170 -54 -110 -70 -175 -72 -291
-2 -118 18 -209 70 -316 136 -277 461 -427 760 -352 247 63 423 236 496 489
15 49 17 213 18 1513 2 1358 1 1457 -15 1457 -9 0 -19 -2 -21 -4z"/>
</g>
</svg>
